<?xml version="1.0" encoding="utf-8"?>
<!-- Generator: Adobe Illustrator 22.0.1, SVG Export Plug-In . SVG Version: 6.00 Build 0)  -->
<svg version="1.1" id="Layer_1" xmlns="http://www.w3.org/2000/svg" xmlns:xlink="http://www.w3.org/1999/xlink" x="0px" y="0px"
	 viewBox="0 0 32 40" style="enable-background:new 0 0 32 40;" xml:space="preserve">
<style type="text/css">
	.st0{fill:#FFFFFF;}
	.st1{fill:#41AD49;}
</style>
<path class="st0" d="M82.9-38.7c0,0.1-0.1,0.3-0.1,0.4l0,0l0,0c0,0.4,0.1,0.8,0.4,1.2c0.4,0.5,1.2,0.8,2.3,0.8l15.3,0
	c1.3,0,2.1-0.3,2.6-0.9c0.2-0.3,0.4-0.7,0.3-1.4c-0.9-4.2-4.3-6.3-10.2-6.3H93c-5.5,0-8.8,1.7-9.9,5.3L82.9-38.7L82.9-38.7z
	 M92.9-20.6c-10.2,0-14.8-4.3-14.8-14v-0.1c0-9.7,4.6-14,14.8-14h0.5c10,0,14.6,4.1,14.8,13.4c0,0.5-0.2,1-0.5,1.3
	c-0.5,0.6-1.5,0.9-2.7,0.9l-2.7,0l-19.8,0l0.2,1.5c0.6,4.8,3.9,7.1,10.3,7.1h0.3c2.6,0,5.5-0.2,7.7-2.1l0.2-0.2
	c0.6-0.5,1-0.8,2.1-0.8l3.3,0c0.3,0,0.5,0.1,0.5,0.2c0.1,0.2,0.1,0.5,0.1,0.6c-2.1,5.4-8.2,6.2-13.8,6.2H92.9z M92.9-20.6"/>
<path class="st0" d="M-18.2,30.5c-0.2,0-0.4-0.1-0.8-0.8c-1.9-3.3-2.8-7.6-2.8-12.9V-7.6c0-0.7,0.3-1,1-1h2.7c0.3,0,0.8,0.5,0.8,1
	v25h0c0.1,3.7,0.7,6.7,1.9,9.2c0.1,0.2,0.4,0.8,0.5,1c0.2,0.3,0.1,0.7-0.2,0.9l-2.3,1.7C-17.7,30.3-17.9,30.4-18.2,30.5
	C-18.2,30.5-18.2,30.5-18.2,30.5"/>
<path class="st0" d="M-39.9,6.6c-7.1,0-10.5,3.2-10.5,10.1v0.1c0,6.9,3.4,10.1,10.5,10.1h0.3c7.1,0,10.5-3.2,10.5-10.1v-0.1
	c0-6.9-3.4-10.1-10.5-10.1H-39.9z M-54,49.2c-0.3,0-0.8-0.4-0.8-0.8V16.5l0-0.2C-54.7,6.8-50.1,2.6-40,2.6h0.5
	c10.2,0,14.8,4.3,14.8,14v0.1c0,9.7-4.6,14-14.8,14H-40c-2.8,0-5.2-0.2-7.2-0.7c-0.4-0.1-0.7-0.1-1-0.1c-1.4,0-2.2,0.9-2.2,2.4v16.1
	c0,0.3-0.3,0.8-0.8,0.8H-54z M-54,49.2"/>
<path class="st0" d="M11.2,16.8c0,6.9-3.4,10.1-10.5,10.1H0.4c-7.1,0-10.5-3.2-10.5-10.1v-0.1c0-6.9,3.4-10.1,10.5-10.1h0.3
	C7.8,6.6,11.2,9.8,11.2,16.8L11.2,16.8z M15.6,16.5l0-0.2C15.5,6.8,11,2.6,0.8,2.6H0.3c-10.2,0-14.8,4.3-14.8,14v0.1
	c0,9.7,4.6,14,14.8,14h0.5c2.8,0,5.2-0.2,7.2-0.7c0.4-0.1,0.7-0.1,1-0.1c0.6,0,1.1,0.2,1.5,0.5c0.3,0.3,0.4,0.3,1.2,0.3h2.6
	c1.2,0,1.4-0.6,1.4-1.1V16.5z M15.6,16.5"/>
<path class="st1" d="M22,22.2c-1.3,0-1.7-0.3-1.7,0c0,0.3,1.5,2.9,2.4,4.1c0.3,0.5,0.5,0.9,0.6,1.3c1.5-1,3.5-2.2,4.6-2.9
	C26.7,24,25,23,24.6,22.8C23.9,22.4,23.3,22.2,22,22.2"/>
<path class="st1" d="M22,13.7c0,0-0.1,0-0.1,0l0,0v0c0,0-0.1,0-0.1,0c0,0-0.1,0.1-0.1,0.1c0,0.1-0.1,0.1,0,0.2
	c0,0.1,0.1,0.1,0.1,0.2c0.1,0,0.1,0.1,0.2,0.1c0,0,0,0,0.1,0c0.1,0,0.1-0.1,0.2-0.1c0,0,0-0.1,0-0.1c0-0.1,0-0.1,0-0.1
	C22.1,13.8,22,13.7,22,13.7"/>
<path class="st1" d="M23.7,14.8c0,0-0.1,0-0.2,0c0,0,0,0-0.1,0c-0.1,0-0.1,0.1-0.2,0.1c0,0,0,0.1,0,0.2c0,0.1,0,0.1,0,0.1
	c0,0,0.1,0.1,0.1,0.1c0,0,0.1,0,0.1,0h0c0.1,0,0.1,0,0.1,0c0,0,0.1-0.1,0.1-0.1c0,0,0-0.1,0-0.2c0-0.1,0-0.1,0-0.2
	C23.8,14.9,23.7,14.8,23.7,14.8"/>
<path class="st1" d="M24.8,15.5c0,0-0.1,0-0.1,0l0,0v0c0,0-0.1,0-0.1,0c0,0-0.1,0.1-0.1,0.1c0,0,0,0.1,0,0.1c0,0.1,0,0.1,0,0.2
	c0,0,0.1,0.1,0.1,0.1c0,0,0.1,0,0.1,0h0c0.1,0,0.1,0,0.1,0c0,0,0.1-0.1,0.1-0.1c0-0.1,0.1-0.1,0-0.2C24.9,15.6,24.8,15.6,24.8,15.5"
	/>
<path class="st1" d="M25.7,16.3c0,0,0-0.1,0-0.1c0,0-0.1-0.1-0.1-0.1c0,0-0.1,0-0.1,0c0,0,0,0,0,0c0,0-0.1,0-0.1,0.1l0.4,0.3
	C25.7,16.3,25.7,16.3,25.7,16.3"/>
<path class="st1" d="M22.8,14.3c0,0-0.1,0-0.1,0c0,0,0,0-0.1,0c-0.1,0-0.1,0.1-0.2,0.1c0,0,0,0.1,0,0.1c0,0.1,0,0.1,0,0.1
	c0,0,0.1,0.1,0.1,0.1c0,0,0.1,0,0.1,0h0c0.1,0,0.1,0,0.1,0c0,0,0.1-0.1,0.1-0.1c0-0.1,0.1-0.1,0-0.2C22.9,14.4,22.9,14.3,22.8,14.3"
	/>
<path class="st1" d="M27.6,17.3c0,0-0.1,0-0.1,0c0,0,0,0-0.1,0c-0.1,0-0.1,0.1-0.2,0.1c0,0,0,0.1,0,0.1c0,0.1,0,0.1,0,0.1
	c0,0,0.1,0.1,0.1,0.1c0,0,0.1,0,0.1,0h0c0.1,0,0.1,0,0.1,0c0,0,0.1-0.1,0.1-0.1c0-0.1,0.1-0.1,0-0.2C27.7,17.4,27.6,17.4,27.6,17.3"
	/>
<path class="st1" d="M29.1,18.3c0,0.1,0,0.1-0.1,0.2l-0.2,0.4l-0.1-0.1l0.2-0.4c0-0.1,0.1-0.1,0.1-0.2c0,0,0-0.1,0-0.1
	c0,0,0-0.1-0.1-0.1c0,0-0.1,0-0.1,0c-0.1,0-0.1,0-0.1,0c0,0-0.1,0.1-0.1,0.2l-0.2,0.3l-0.1-0.1l0.2-0.4c0.1-0.1,0.1-0.1,0.1-0.2
	c0,0,0-0.1,0-0.1c0,0,0-0.1-0.1-0.1c0,0-0.1,0-0.1,0c-0.1,0-0.1,0-0.1,0c0,0-0.1,0.1-0.1,0.2l-0.2,0.3l-0.1-0.1l0.4-0.7l0.1,0.1
	l-0.1,0.1c0,0,0.1,0,0.1,0c0.1,0,0.1,0,0.2,0.1c0,0,0.1,0.1,0.1,0.1c0,0,0,0.1,0,0.1c0,0,0,0.1,0,0.1c0.1,0,0.1,0,0.1,0
	c0.1,0,0.1,0,0.2,0.1c0,0,0.1,0.1,0.1,0.1C29.1,18.2,29.1,18.3,29.1,18.3 M27.4,18c-0.1,0-0.2,0-0.2-0.1c-0.1-0.1-0.2-0.2-0.2-0.3
	c0-0.1,0-0.2,0.1-0.3c0.1-0.1,0.1-0.2,0.3-0.2c0,0,0.1,0,0.1,0c0.1,0,0.2,0,0.2,0.1c0.1,0.1,0.2,0.2,0.2,0.3c0,0.1,0,0.2-0.1,0.3
	c-0.1,0.1-0.1,0.2-0.3,0.2C27.5,18,27.5,18,27.4,18 M27,17.1c0-0.1-0.1-0.2-0.2-0.3c-0.1,0-0.1-0.1-0.2-0.1c0,0,0,0-0.1,0
	c-0.1,0-0.1,0.1-0.2,0.1c0,0,0,0.1,0,0.2c0,0.1,0,0.1,0,0.2c0,0,0.1,0.1,0.1,0.1c0.1,0,0.1,0.1,0.2,0.1c0,0,0.1,0,0.1,0l0,0l0.1,0.1
	l0,0c-0.1,0-0.1,0-0.2,0c0,0,0,0,0,0c-0.1,0-0.1,0-0.2-0.1c-0.1-0.1-0.2-0.2-0.2-0.3c0-0.1,0-0.2,0.1-0.3c0-0.1,0.1-0.1,0.2-0.2
	c0.1,0,0.1-0.1,0.2-0.1h0c0.1,0,0.2,0,0.2,0.1c0,0,0.1,0.1,0.1,0.1c0,0,0.1,0.1,0.1,0.1c0,0,0,0.1,0,0.1v0L27,17.1L27,17.1z M26,17
	C26,17.1,25.9,17.1,26,17L26,17c-0.1,0.1-0.1,0-0.2,0c0,0,0,0,0-0.1c0,0,0-0.1,0-0.1c0,0,0,0,0.1-0.1l0,0c0,0,0,0,0.1,0
	C26,16.9,26,16.9,26,17C26,17,26,17,26,17 M25.7,16.7c-0.1,0-0.1,0.1-0.2,0.1c0,0-0.1,0-0.1,0c0,0-0.1,0-0.1,0c-0.1,0-0.1,0-0.2-0.1
	c-0.1-0.1-0.2-0.2-0.2-0.3c0-0.1,0-0.2,0.1-0.3c0.1-0.1,0.1-0.2,0.2-0.2c0,0,0.1,0,0.1,0c0.1,0,0.2,0,0.2,0.1
	c0.1,0.1,0.2,0.2,0.2,0.3c0,0.1,0,0.2-0.1,0.3l0,0l-0.6-0.4c0,0.1,0,0.1,0,0.2c0,0.1,0.1,0.1,0.1,0.2c0,0,0.1,0,0.1,0c0,0,0,0,0.1,0
	c0,0,0,0,0,0c0,0,0.1,0,0.1,0l0,0L25.7,16.7L25.7,16.7z M24.6,16.3L24.6,16.3C24.6,16.2,24.6,16.2,24.6,16.3
	C24.6,16.2,24.6,16.2,24.6,16.3c-0.1-0.1-0.2-0.1-0.3-0.1c-0.1-0.1-0.2-0.2-0.2-0.3c0-0.1,0-0.2,0.1-0.3c0.1-0.1,0.2-0.2,0.3-0.2
	c0,0,0.1,0,0.1,0c0.1,0,0.2,0,0.2,0.1c0.1,0,0.1,0.1,0.1,0.1c0,0,0,0.1,0,0.1l0.1-0.1l0.1,0.1l-0.4,0.7L24.6,16.3z M23.8,15.7l0.6-1
	l0.1,0.1l-0.6,1L23.8,15.7z M23.5,15.5c-0.1,0-0.1,0-0.2-0.1c-0.1,0-0.1-0.1-0.1-0.1c0,0,0-0.1-0.1-0.1l-0.2,0.3l-0.1-0.1l0.6-1
	l0.1,0.1l-0.1,0.1c0,0,0.1,0,0.1,0c0,0,0,0,0,0c0.1,0,0.1,0,0.2,0.1c0.1,0.1,0.2,0.2,0.2,0.3c0,0.1,0,0.2-0.1,0.3
	c-0.1,0.1-0.2,0.2-0.3,0.2C23.6,15.5,23.6,15.5,23.5,15.5 M22.7,15c-0.1,0-0.2,0-0.2-0.1c-0.1-0.1-0.2-0.2-0.2-0.3
	c0-0.1,0-0.2,0.1-0.3c0.1-0.1,0.1-0.2,0.3-0.2c0,0,0.1,0,0.1,0c0.1,0,0.2,0,0.2,0.1c0.1,0.1,0.2,0.2,0.2,0.3c0,0.1,0,0.2-0.1,0.3
	c-0.1,0.1-0.2,0.2-0.3,0.2C22.7,15,22.7,15,22.7,15 M21.9,14.6c-0.1,0.1-0.1,0.1-0.2,0.1h0c-0.1,0-0.2,0-0.2-0.1
	c-0.1,0-0.1-0.1-0.1-0.1c0,0-0.1-0.1-0.1-0.1c0,0,0-0.1,0-0.2l0,0l0.1,0.1v0c0,0.1,0,0.1,0,0.2c0,0,0.1,0.1,0.1,0.1
	c0.1,0,0.1,0.1,0.2,0.1h0c0.1,0,0.1,0,0.1,0c0,0,0.1-0.1,0.1-0.1c0,0-0.1,0-0.1,0c0,0,0,0,0,0c-0.1,0-0.1,0-0.2-0.1
	c-0.1,0-0.1-0.1-0.2-0.2c0-0.1-0.1-0.1-0.1-0.2c0-0.1,0-0.1,0.1-0.2c0-0.1,0.1-0.1,0.2-0.2c0.1,0,0.1-0.1,0.2-0.1
	c0.1,0,0.2,0,0.2,0.1c0.1,0,0.1,0.1,0.1,0.1c0,0,0,0.1,0.1,0.1l0.1-0.1l0.1,0.1l-0.3,0.6C22,14.5,22,14.6,21.9,14.6 M21.2,13.9
	C21.2,14,21.1,14,21.2,13.9L21.2,13.9C21.1,14,21,14,21,14c0,0,0,0,0-0.1c0,0,0-0.1,0-0.1c0,0,0,0,0.1-0.1l0,0c0,0,0,0,0.1,0
	C21.2,13.8,21.2,13.8,21.2,13.9C21.2,13.9,21.2,13.9,21.2,13.9 M20.5,13.6l0.1-0.6l-0.5,0.3l0,0l0,0l0.1-0.8L19.5,13l0,0l0.1-0.6
	l-0.5,0.3l0,0l0,0l0.1-0.8l-0.7,0.5l0,0l0.1-0.6L18,12l0,0l0,0l0.1-0.9l0.1,0.1l-0.1,0.6l0.5-0.3l0,0l0,0L18.6,12l0.5-0.3l0.1,0.1
	l0,0l0,0l0.1,0.1l-0.1,0.6l0.5-0.3l0,0l0,0l-0.1,0.6l0.5-0.3l0.1,0.1l0.1,0.1l-0.1,0.6l0.5-0.3l0,0l0,0l-0.1,0.6l0.5-0.3l0.1,0.1
	L20.5,13.6L20.5,13.6z M31.5,19.6c0-0.1,0-0.2,0-0.2c-0.1-0.7-0.3-1.1-0.5-1.3c-0.3-0.2-0.6-0.4-0.9-0.7C29.6,17,5.3,1.3,4.5,0.8
	c-1.6-1-3.8,1-3.8,2.4v34.2c0,2.1,2.9,3,3.8,2.4c0.8-0.5,3.8-2.5,4.3-2.8c0,0,0,0,0.1,0C9,36.1,9.2,35.3,9.3,35
	c0.3-1.2,0.5-1.6,1.1-2.1c0.5-0.6,4.7-4.5,5.1-4.9c0.4-0.4,0.3-0.7,0.4-0.8c0.1-0.1-1.9-2-2.4-2.6c-0.5-0.6-0.6-0.1-0.8,0
	c-0.1,0.1-1.7,1.9-2.4,2.8c-0.8,0.9-1.1,0.7-1.6,0.5c-0.5-0.2-5-3.3-5-3.3v-1.7c0,0,4.2,1.3,4.6,1.5c0.4,0.2,0.8,0.3,1-0.1
	c0.2-0.4,1-2.7,1.5-3.3c0.5-0.6,1.3-1.1,1.5-1.1c0.3,0,0.3-0.2,0.3-0.3c0,0,0-0.1,0.1-0.1c1.2-0.1,2.3-0.7,3-1.5
	c-0.7,0.7-1.7,1.2-2.8,1.2c-2.2,0-4-1.8-4-4.1c0-2.3,1.8-4.1,4-4.1c2.2,0,4,1.8,4,4.1c0,1-0.3,1.9-0.9,2.6h0.3
	c0.2,0.3,0.6,0.4,0.6,0.4s1.3-0.1,1.8,0c0.5,0,3.3,1,4.7,1.4c1.4,0.4,2.2,1,2.9,1.5c0.6,0.4,2.6,2.2,3.1,2.8
	c0.2-0.2,0.5-0.3,0.7-0.5c0.3-0.2,0.6-0.4,0.9-0.7c0.3-0.2,0.4-0.7,0.5-1.3c0,0,0-0.1,0-0.2c0,0,0-0.5,0-0.7
	C31.5,20,31.5,19.6,31.5,19.6"/>
<path class="st0" d="M23.2,37.4l-1.1,1c-0.4-0.5-0.8-0.8-1.1-0.8c-0.2,0-0.3,0.1-0.5,0.2c-0.1,0.1-0.2,0.2-0.2,0.4
	c0,0.1,0,0.3,0.1,0.4c0.1,0.2,0.5,0.5,1.1,1c0.6,0.5,0.9,0.8,1,0.9c0.3,0.3,0.5,0.6,0.6,0.9c0.1,0.3,0.2,0.6,0.2,0.9
	c0,0.6-0.2,1.2-0.6,1.6c-0.4,0.4-1,0.6-1.7,0.6c-0.5,0-1-0.1-1.4-0.4c-0.4-0.3-0.7-0.7-1-1.3l1.2-0.8c0.4,0.7,0.8,1,1.3,1
	c0.2,0,0.5-0.1,0.6-0.2c0.2-0.1,0.3-0.3,0.3-0.5c0-0.2-0.1-0.4-0.2-0.5c-0.1-0.2-0.4-0.4-0.8-0.8c-0.8-0.7-1.4-1.2-1.6-1.6
	c-0.2-0.4-0.4-0.8-0.4-1.1c0-0.5,0.2-1,0.6-1.4c0.4-0.4,0.9-0.6,1.5-0.6c0.4,0,0.7,0.1,1.1,0.3C22.4,36.6,22.7,36.9,23.2,37.4"/>
<path class="st0" d="M24,36.3h1.5v3H28v-3h1.5v7.8H28v-3.4h-2.5v3.4H24V36.3z M24,36.3"/>
<path class="st0" d="M34,37.6c-0.7,0-1.3,0.3-1.8,0.8c-0.5,0.5-0.7,1.1-0.7,1.9c0,0.9,0.3,1.6,0.9,2.1c0.5,0.4,1,0.6,1.6,0.6
	c0.7,0,1.3-0.3,1.8-0.8c0.5-0.5,0.7-1.1,0.7-1.9c0-0.7-0.2-1.4-0.7-1.9C35.3,37.8,34.7,37.6,34,37.6 M34,36.1c1.1,0,2,0.4,2.8,1.2
	c0.8,0.8,1.2,1.8,1.2,2.9c0,1.1-0.4,2.1-1.1,2.9C36,44,35.1,44.4,34,44.4c-1.1,0-2.1-0.4-2.8-1.2c-0.8-0.8-1.1-1.8-1.1-2.9
	c0-0.7,0.2-1.4,0.5-2.1c0.4-0.6,0.8-1.1,1.5-1.5C32.6,36.3,33.3,36.1,34,36.1"/>
<path class="st0" d="M38.7,36.3h4.2v1.5h-2.7v1.4h2.7v1.4h-2.7v2.1h2.7v1.5h-4.2V36.3z M38.7,36.3"/>
<path class="st0" d="M47.9,37.4l-1.1,1c-0.4-0.5-0.8-0.8-1.2-0.8c-0.2,0-0.3,0.1-0.5,0.2c-0.1,0.1-0.2,0.2-0.2,0.4
	c0,0.1,0,0.3,0.1,0.4c0.1,0.2,0.5,0.5,1.1,1c0.6,0.5,0.9,0.8,1,0.9c0.3,0.3,0.5,0.6,0.6,0.9c0.1,0.3,0.2,0.6,0.2,0.9
	c0,0.6-0.2,1.2-0.6,1.6c-0.4,0.4-1,0.6-1.7,0.6c-0.5,0-1-0.1-1.4-0.4c-0.4-0.3-0.7-0.7-1-1.3l1.2-0.8c0.4,0.7,0.8,1,1.3,1
	c0.2,0,0.5-0.1,0.6-0.2c0.2-0.1,0.3-0.3,0.3-0.5c0-0.2-0.1-0.4-0.2-0.5c-0.1-0.2-0.4-0.4-0.8-0.8c-0.8-0.7-1.4-1.2-1.6-1.6
	c-0.2-0.4-0.4-0.8-0.4-1.1c0-0.5,0.2-1,0.6-1.4c0.4-0.4,0.9-0.6,1.5-0.6c0.4,0,0.7,0.1,1.1,0.3C47.2,36.6,47.5,36.9,47.9,37.4"/>
</svg>
