<?xml version="1.0" encoding="utf-8"?>
<!-- Generator: Adobe Illustrator 22.0.1, SVG Export Plug-In . SVG Version: 6.00 Build 0)  -->
<svg version="1.1" id="Layer_1" xmlns="http://www.w3.org/2000/svg" xmlns:xlink="http://www.w3.org/1999/xlink" x="0px" y="0px"
	 viewBox="0 0 143 58" style="enable-background:new 0 0 143 58;" xml:space="preserve">
<style type="text/css">
	.st0{fill:#FFFFFF;}
	.st1{fill:#41AD49;}
</style>
<path class="st0" d="M78.7,21.6c0,0.1-0.1,0.3-0.1,0.4l0,0l0,0c0,0.4,0.1,0.8,0.4,1.2c0.4,0.5,1.2,0.8,2.3,0.8l15.3,0
	c1.3,0,2.1-0.3,2.6-0.9c0.2-0.3,0.4-0.7,0.3-1.4c-0.9-4.2-4.3-6.3-10.2-6.3h-0.3c-5.5,0-8.8,1.7-9.9,5.3L78.7,21.6L78.7,21.6z
	 M88.7,39.7c-10.2,0-14.8-4.3-14.8-14v-0.1c0-9.7,4.6-14,14.8-14h0.5c10,0,14.6,4.1,14.8,13.4c0,0.5-0.2,1-0.5,1.3
	c-0.5,0.6-1.5,0.9-2.7,0.9l-2.7,0l-19.8,0l0.2,1.5c0.6,4.8,3.9,7.1,10.3,7.1h0.3c2.6,0,5.5-0.2,7.7-2.1l0.2-0.2
	c0.6-0.5,1-0.8,2.1-0.8l3.3,0c0.3,0,0.5,0.1,0.5,0.2c0.1,0.2,0.1,0.5,0.1,0.6c-2.1,5.4-8.2,6.2-13.8,6.2H88.7z M88.7,39.7"/>
<path class="st0" d="M37.3,39.5c-0.2,0-0.4-0.1-0.8-0.8c-1.9-3.3-2.8-7.6-2.8-12.9V1.4c0-0.7,0.3-1,1-1h2.7c0.3,0,0.8,0.5,0.8,1v25
	h0c0.1,3.7,0.7,6.7,1.9,9.2c0.1,0.2,0.4,0.8,0.5,1c0.2,0.3,0.1,0.7-0.2,0.9l-2.3,1.7C37.8,39.3,37.6,39.4,37.3,39.5
	C37.3,39.5,37.3,39.5,37.3,39.5"/>
<path class="st0" d="M15.6,15.6c-7.1,0-10.5,3.2-10.5,10.1v0.1c0,6.9,3.4,10.1,10.5,10.1h0.3c7.1,0,10.5-3.2,10.5-10.1v-0.1
	c0-6.9-3.4-10.1-10.5-10.1H15.6z M1.5,58.2c-0.3,0-0.8-0.4-0.8-0.8V25.5l0-0.2c0.1-9.4,4.7-13.6,14.8-13.6h0.5
	c10.2,0,14.8,4.3,14.8,14v0.1c0,9.7-4.6,14-14.8,14h-0.5c-2.8,0-5.2-0.2-7.2-0.7c-0.4-0.1-0.7-0.1-1-0.1c-1.4,0-2.2,0.9-2.2,2.4
	v16.1c0,0.3-0.3,0.8-0.8,0.8H1.5z M1.5,58.2"/>
<path class="st0" d="M66.7,25.8c0,6.9-3.4,10.1-10.5,10.1h-0.3c-7.1,0-10.5-3.2-10.5-10.1v-0.1c0-6.9,3.4-10.1,10.5-10.1h0.3
	C63.3,15.6,66.7,18.8,66.7,25.8L66.7,25.8z M71.1,25.5l0-0.2c-0.1-9.4-4.7-13.6-14.8-13.6h-0.5C45.6,11.6,41,16,41,25.6v0.1
	c0,9.7,4.6,14,14.8,14h0.5c2.8,0,5.2-0.2,7.2-0.7c0.4-0.1,0.7-0.1,1-0.1c0.6,0,1.1,0.2,1.5,0.5c0.3,0.3,0.4,0.3,1.2,0.3h2.6
	c1.2,0,1.4-0.6,1.4-1.1V25.5z M71.1,25.5"/>
<path class="st1" d="M133.2,21.9c-1.3,0-1.7-0.3-1.7,0c0,0.3,1.5,2.9,2.4,4.1c0.3,0.5,0.5,0.9,0.6,1.3c1.5-1,3.5-2.2,4.6-2.9
	c-1.2-0.7-2.9-1.7-3.3-1.9C135.1,22.1,134.5,21.9,133.2,21.9"/>
<path class="st1" d="M133.2,13.4c0,0-0.1,0-0.1,0l0,0v0c0,0-0.1,0-0.1,0c0,0-0.1,0.1-0.1,0.1c0,0.1-0.1,0.1,0,0.2
	c0,0.1,0.1,0.1,0.1,0.2c0.1,0,0.1,0.1,0.2,0.1c0,0,0,0,0.1,0c0.1,0,0.1-0.1,0.2-0.1c0,0,0-0.1,0-0.1c0-0.1,0-0.1,0-0.1
	C133.2,13.4,133.2,13.4,133.2,13.4"/>
<path class="st1" d="M134.8,14.5c0,0-0.1,0-0.2,0c0,0,0,0-0.1,0c-0.1,0-0.1,0.1-0.2,0.1c0,0,0,0.1,0,0.2c0,0.1,0,0.1,0,0.1
	c0,0,0.1,0.1,0.1,0.1c0,0,0.1,0,0.1,0h0c0.1,0,0.1,0,0.1,0c0,0,0.1-0.1,0.1-0.1c0,0,0-0.1,0-0.2c0-0.1,0-0.1,0-0.2
	C134.9,14.5,134.9,14.5,134.8,14.5"/>
<path class="st1" d="M135.9,15.2c0,0-0.1,0-0.1,0l0,0v0c0,0-0.1,0-0.1,0c0,0-0.1,0.1-0.1,0.1c0,0,0,0.1,0,0.1c0,0.1,0,0.1,0,0.2
	c0,0,0.1,0.1,0.1,0.1c0,0,0.1,0,0.1,0h0c0.1,0,0.1,0,0.1,0c0,0,0.1-0.1,0.1-0.1c0-0.1,0.1-0.1,0-0.2C136,15.3,136,15.2,135.9,15.2"
	/>
<path class="st1" d="M136.9,15.9c0,0,0-0.1,0-0.1c0,0-0.1-0.1-0.1-0.1c0,0-0.1,0-0.1,0c0,0,0,0,0,0c0,0-0.1,0-0.1,0.1l0.4,0.3
	C136.9,16,136.9,16,136.9,15.9"/>
<path class="st1" d="M134,13.9c0,0-0.1,0-0.1,0c0,0,0,0-0.1,0c-0.1,0-0.1,0.1-0.2,0.1c0,0,0,0.1,0,0.1c0,0.1,0,0.1,0,0.1
	c0,0,0.1,0.1,0.1,0.1c0,0,0.1,0,0.1,0h0c0.1,0,0.1,0,0.1,0c0,0,0.1-0.1,0.1-0.1c0-0.1,0.1-0.1,0-0.2C134.1,14,134.1,14,134,13.9"/>
<path class="st1" d="M138.7,17c0,0-0.1,0-0.1,0c0,0,0,0-0.1,0c-0.1,0-0.1,0.1-0.2,0.1c0,0,0,0.1,0,0.1c0,0.1,0,0.1,0,0.1
	c0,0,0.1,0.1,0.1,0.1c0,0,0.1,0,0.1,0h0c0.1,0,0.1,0,0.1,0c0,0,0.1-0.1,0.1-0.1c0-0.1,0.1-0.1,0-0.2C138.9,17.1,138.8,17,138.7,17"
	/>
<path class="st1" d="M140.2,18c0,0.1,0,0.1-0.1,0.2l-0.2,0.4l-0.1-0.1l0.2-0.4c0-0.1,0.1-0.1,0.1-0.2c0,0,0-0.1,0-0.1
	c0,0,0-0.1-0.1-0.1c0,0-0.1,0-0.1,0c-0.1,0-0.1,0-0.1,0c0,0-0.1,0.1-0.1,0.2l-0.2,0.3l-0.1-0.1l0.2-0.4c0.1-0.1,0.1-0.1,0.1-0.2
	c0,0,0-0.1,0-0.1c0,0,0-0.1-0.1-0.1c0,0-0.1,0-0.1,0c-0.1,0-0.1,0-0.1,0c0,0-0.1,0.1-0.1,0.2L139,18l-0.1-0.1l0.4-0.7l0.1,0.1
	l-0.1,0.1c0,0,0.1,0,0.1,0c0.1,0,0.1,0,0.2,0.1c0,0,0.1,0.1,0.1,0.1c0,0,0,0.1,0,0.1c0,0,0,0.1,0,0.1c0.1,0,0.1,0,0.1,0
	c0.1,0,0.1,0,0.2,0.1c0,0,0.1,0.1,0.1,0.1C140.2,17.9,140.2,17.9,140.2,18 M138.6,17.7c-0.1,0-0.2,0-0.2-0.1
	c-0.1-0.1-0.2-0.2-0.2-0.3c0-0.1,0-0.2,0.1-0.3c0.1-0.1,0.1-0.2,0.3-0.2c0,0,0.1,0,0.1,0c0.1,0,0.2,0,0.2,0.1
	c0.1,0.1,0.2,0.2,0.2,0.3c0,0.1,0,0.2-0.1,0.3c-0.1,0.1-0.1,0.2-0.3,0.2C138.7,17.7,138.6,17.7,138.6,17.7 M138.1,16.7
	c0-0.1-0.1-0.2-0.2-0.3c-0.1,0-0.1-0.1-0.2-0.1c0,0,0,0-0.1,0c-0.1,0-0.1,0.1-0.2,0.1c0,0,0,0.1,0,0.2c0,0.1,0,0.1,0,0.2
	c0,0,0.1,0.1,0.1,0.1c0.1,0,0.1,0.1,0.2,0.1c0,0,0.1,0,0.1,0l0,0l0.1,0.1l0,0c-0.1,0-0.1,0-0.2,0c0,0,0,0,0,0c-0.1,0-0.1,0-0.2-0.1
	c-0.1-0.1-0.2-0.2-0.2-0.3c0-0.1,0-0.2,0.1-0.3c0-0.1,0.1-0.1,0.2-0.2c0.1,0,0.1-0.1,0.2-0.1h0c0.1,0,0.2,0,0.2,0.1
	c0,0,0.1,0.1,0.1,0.1c0,0,0.1,0.1,0.1,0.1c0,0,0,0.1,0,0.1v0L138.1,16.7L138.1,16.7z M137.1,16.7C137.1,16.7,137.1,16.8,137.1,16.7
	L137.1,16.7c-0.1,0.1-0.1,0-0.2,0c0,0,0,0,0-0.1c0,0,0-0.1,0-0.1c0,0,0,0,0.1-0.1l0,0c0,0,0,0,0.1,0
	C137.1,16.6,137.1,16.6,137.1,16.7C137.2,16.7,137.2,16.7,137.1,16.7 M136.9,16.4c-0.1,0-0.1,0.1-0.2,0.1c0,0-0.1,0-0.1,0
	c0,0-0.1,0-0.1,0c-0.1,0-0.1,0-0.2-0.1c-0.1-0.1-0.2-0.2-0.2-0.3c0-0.1,0-0.2,0.1-0.3c0.1-0.1,0.1-0.2,0.2-0.2c0,0,0.1,0,0.1,0
	c0.1,0,0.2,0,0.2,0.1c0.1,0.1,0.2,0.2,0.2,0.3c0,0.1,0,0.2-0.1,0.3l0,0l-0.6-0.4c0,0.1,0,0.1,0,0.2c0,0.1,0.1,0.1,0.1,0.2
	c0,0,0.1,0,0.1,0c0,0,0,0,0.1,0c0,0,0,0,0,0c0,0,0.1,0,0.1,0l0,0L136.9,16.4L136.9,16.4z M135.8,15.9L135.8,15.9
	C135.8,15.9,135.8,15.9,135.8,15.9C135.7,15.9,135.7,15.9,135.8,15.9c-0.1-0.1-0.2-0.1-0.3-0.1c-0.1-0.1-0.2-0.2-0.2-0.3
	c0-0.1,0-0.2,0.1-0.3c0.1-0.1,0.2-0.2,0.3-0.2c0,0,0.1,0,0.1,0c0.1,0,0.2,0,0.2,0.1c0.1,0,0.1,0.1,0.1,0.1c0,0,0,0.1,0,0.1l0.1-0.1
	l0.1,0.1l-0.4,0.7L135.8,15.9z M134.9,15.4l0.6-1l0.1,0.1l-0.6,1L134.9,15.4z M134.7,15.2c-0.1,0-0.1,0-0.2-0.1
	c-0.1,0-0.1-0.1-0.1-0.1c0,0,0-0.1-0.1-0.1l-0.2,0.3l-0.1-0.1l0.6-1l0.1,0.1l-0.1,0.1c0,0,0.1,0,0.1,0c0,0,0,0,0,0
	c0.1,0,0.1,0,0.2,0.1c0.1,0.1,0.2,0.2,0.2,0.3c0,0.1,0,0.2-0.1,0.3c-0.1,0.1-0.2,0.2-0.3,0.2C134.8,15.2,134.7,15.2,134.7,15.2
	 M133.8,14.6c-0.1,0-0.2,0-0.2-0.1c-0.1-0.1-0.2-0.2-0.2-0.3c0-0.1,0-0.2,0.1-0.3c0.1-0.1,0.1-0.2,0.3-0.2c0,0,0.1,0,0.1,0
	c0.1,0,0.2,0,0.2,0.1c0.1,0.1,0.2,0.2,0.2,0.3c0,0.1,0,0.2-0.1,0.3c-0.1,0.1-0.2,0.2-0.3,0.2C133.9,14.6,133.9,14.6,133.8,14.6
	 M133.1,14.3c-0.1,0.1-0.1,0.1-0.2,0.1h0c-0.1,0-0.2,0-0.2-0.1c-0.1,0-0.1-0.1-0.1-0.1c0,0-0.1-0.1-0.1-0.1c0,0,0-0.1,0-0.2l0,0
	l0.1,0.1v0c0,0.1,0,0.1,0,0.2c0,0,0.1,0.1,0.1,0.1c0.1,0,0.1,0.1,0.2,0.1h0c0.1,0,0.1,0,0.1,0c0,0,0.1-0.1,0.1-0.1c0,0-0.1,0-0.1,0
	c0,0,0,0,0,0c-0.1,0-0.1,0-0.2-0.1c-0.1,0-0.1-0.1-0.2-0.2c0-0.1-0.1-0.1-0.1-0.2c0-0.1,0-0.1,0.1-0.2c0-0.1,0.1-0.1,0.2-0.2
	c0.1,0,0.1-0.1,0.2-0.1c0.1,0,0.2,0,0.2,0.1c0.1,0,0.1,0.1,0.1,0.1c0,0,0,0.1,0.1,0.1l0.1-0.1l0.1,0.1l-0.3,0.6
	C133.2,14.2,133.1,14.2,133.1,14.3 M132.3,13.6C132.3,13.6,132.3,13.7,132.3,13.6L132.3,13.6c-0.1,0.1-0.1,0-0.2,0c0,0,0,0,0-0.1
	c0,0,0-0.1,0-0.1c0,0,0,0,0.1-0.1l0,0c0,0,0,0,0.1,0C132.3,13.5,132.4,13.5,132.3,13.6C132.4,13.6,132.4,13.6,132.3,13.6
	 M131.7,13.3l0.1-0.6l-0.5,0.3l0,0l0,0l0.1-0.8l-0.7,0.5l0,0l0.1-0.6l-0.5,0.3l0,0l0,0l0.1-0.8l-0.7,0.5l0,0l0.1-0.6l-0.5,0.3l0,0
	l0,0l0.1-0.9l0.1,0.1l-0.1,0.6l0.5-0.3l0,0l0,0l-0.1,0.6l0.5-0.3l0.1,0.1l0,0l0,0l0.1,0.1l-0.1,0.6l0.5-0.3l0,0l0,0l-0.1,0.6
	l0.5-0.3l0.1,0.1l0.1,0.1l-0.1,0.6l0.5-0.3l0,0l0,0l-0.1,0.6l0.5-0.3l0.1,0.1L131.7,13.3L131.7,13.3z M142.7,19.2c0-0.1,0-0.2,0-0.2
	c-0.1-0.7-0.3-1.1-0.5-1.3c-0.3-0.2-0.6-0.4-0.9-0.7c-0.5-0.4-24.8-16-25.7-16.6c-1.6-1-3.8,1-3.8,2.4v34.2c0,2.1,2.9,3,3.8,2.4
	c0.8-0.5,3.8-2.5,4.3-2.8c0,0,0,0,0.1,0c0.2-0.9,0.4-1.6,0.5-1.9c0.3-1.2,0.5-1.6,1.1-2.1c0.5-0.6,4.7-4.5,5.1-4.9
	c0.4-0.4,0.3-0.7,0.4-0.8c0.1-0.1-1.9-2-2.4-2.6c-0.5-0.6-0.6-0.1-0.8,0c-0.1,0.1-1.7,1.9-2.4,2.8c-0.8,0.9-1.1,0.7-1.6,0.5
	c-0.5-0.2-5-3.3-5-3.3v-1.7c0,0,4.2,1.3,4.6,1.5c0.4,0.2,0.8,0.3,1-0.1c0.2-0.4,1-2.7,1.5-3.3c0.5-0.6,1.3-1.1,1.5-1.1
	c0.3,0,0.3-0.2,0.3-0.3c0,0,0-0.1,0.1-0.1c1.2-0.1,2.3-0.7,3-1.5c-0.7,0.7-1.7,1.2-2.8,1.2c-2.2,0-4-1.8-4-4.1c0-2.3,1.8-4.1,4-4.1
	c2.2,0,4,1.8,4,4.1c0,1-0.3,1.9-0.9,2.6h0.3c0.2,0.3,0.6,0.4,0.6,0.4s1.3-0.1,1.8,0c0.5,0,3.3,1,4.7,1.4c1.4,0.4,2.2,1,2.9,1.5
	c0.6,0.4,2.6,2.2,3.1,2.8c0.2-0.2,0.5-0.3,0.7-0.5c0.3-0.2,0.6-0.4,0.9-0.7c0.3-0.2,0.4-0.7,0.5-1.3c0,0,0-0.1,0-0.2
	c0,0,0-0.5,0-0.7C142.7,19.7,142.7,19.2,142.7,19.2"/>
<path class="st0" d="M78.7,46.4l-1.1,1c-0.4-0.5-0.8-0.8-1.1-0.8c-0.2,0-0.3,0.1-0.5,0.2c-0.1,0.1-0.2,0.2-0.2,0.4
	c0,0.1,0,0.3,0.1,0.4c0.1,0.2,0.5,0.5,1.1,1c0.6,0.5,0.9,0.8,1,0.9c0.3,0.3,0.5,0.6,0.6,0.9c0.1,0.3,0.2,0.6,0.2,0.9
	c0,0.6-0.2,1.2-0.6,1.6c-0.4,0.4-1,0.6-1.7,0.6c-0.5,0-1-0.1-1.4-0.4c-0.4-0.3-0.7-0.7-1-1.3l1.2-0.8c0.4,0.7,0.8,1,1.3,1
	c0.2,0,0.5-0.1,0.6-0.2c0.2-0.1,0.3-0.3,0.3-0.5c0-0.2-0.1-0.4-0.2-0.5c-0.1-0.2-0.4-0.4-0.8-0.8c-0.8-0.7-1.4-1.2-1.6-1.6
	c-0.2-0.4-0.4-0.8-0.4-1.1c0-0.5,0.2-1,0.6-1.4c0.4-0.4,0.9-0.6,1.5-0.6c0.4,0,0.7,0.1,1.1,0.3C77.9,45.6,78.2,45.9,78.7,46.4"/>
<path class="st0" d="M79.5,45.3H81v3h2.5v-3H85v7.8h-1.5v-3.4H81v3.4h-1.5V45.3z M79.5,45.3"/>
<path class="st0" d="M89.5,46.6c-0.7,0-1.3,0.3-1.8,0.8c-0.5,0.5-0.7,1.1-0.7,1.9c0,0.9,0.3,1.6,0.9,2.1c0.5,0.4,1,0.6,1.6,0.6
	c0.7,0,1.3-0.3,1.8-0.8c0.5-0.5,0.7-1.1,0.7-1.9c0-0.7-0.2-1.4-0.7-1.9C90.8,46.8,90.2,46.6,89.5,46.6 M89.5,45.1
	c1.1,0,2,0.4,2.8,1.2c0.8,0.8,1.2,1.8,1.2,2.9c0,1.1-0.4,2.1-1.1,2.9c-0.8,0.8-1.7,1.2-2.8,1.2c-1.1,0-2.1-0.4-2.8-1.2
	c-0.8-0.8-1.1-1.8-1.1-2.9c0-0.7,0.2-1.4,0.5-2.1c0.4-0.6,0.8-1.1,1.5-1.5C88.1,45.3,88.8,45.1,89.5,45.1"/>
<path class="st0" d="M94.2,45.3h4.2v1.5h-2.7v1.4h2.7v1.4h-2.7v2.1h2.7v1.5h-4.2V45.3z M94.2,45.3"/>
<path class="st0" d="M103.4,46.4l-1.1,1c-0.4-0.5-0.8-0.8-1.2-0.8c-0.2,0-0.3,0.1-0.5,0.2c-0.1,0.1-0.2,0.2-0.2,0.4
	c0,0.1,0,0.3,0.1,0.4c0.1,0.2,0.5,0.5,1.1,1c0.6,0.5,0.9,0.8,1,0.9c0.3,0.3,0.5,0.6,0.6,0.9c0.1,0.3,0.2,0.6,0.2,0.9
	c0,0.6-0.2,1.2-0.6,1.6c-0.4,0.4-1,0.6-1.7,0.6c-0.5,0-1-0.1-1.4-0.4c-0.4-0.3-0.7-0.7-1-1.3l1.2-0.8c0.4,0.7,0.8,1,1.3,1
	c0.2,0,0.5-0.1,0.6-0.2c0.2-0.1,0.3-0.3,0.3-0.5c0-0.2-0.1-0.4-0.2-0.5c-0.1-0.2-0.4-0.4-0.8-0.8c-0.8-0.7-1.4-1.2-1.6-1.6
	c-0.2-0.4-0.4-0.8-0.4-1.1c0-0.5,0.2-1,0.6-1.4c0.4-0.4,0.9-0.6,1.5-0.6c0.4,0,0.7,0.1,1.1,0.3C102.7,45.6,103,45.9,103.4,46.4"/>
</svg>
